<?xml version="1.0" encoding="utf-8"?>
<!-- Generator: Adobe Illustrator 19.1.1, SVG Export Plug-In . SVG Version: 6.00 Build 0)  -->
<svg version="1.1" id="Calque_1" xmlns="http://www.w3.org/2000/svg" xmlns:xlink="http://www.w3.org/1999/xlink" x="0px" y="0px"
	 viewBox="0 0 8503.9 8503.9" style="enable-background:new 0 0 8503.9 8503.9;" xml:space="preserve">
<style type="text/css">
	.st0{fill:#D13239;}
	.st1{fill:#FAFDFD;}
</style>
<path class="st0" d="M1450,7454.3c66.3-20.3,115.6-96.5,115.6-187.5c0-106.7-67.5-194.8-150.7-194.8h-188.6v734.4h198.4
	c88.5,0,160.5-79.3,160.5-177.2C1585.1,7540.8,1526.5,7467.8,1450,7454.3 M1337.4,7144.7h14.2c67.6,0,122.5,58.3,122.5,130.3
	c0,72-54.9,130.2-122.5,130.2h-14.2V7144.7z M1351.6,7746.3h-14.2v-260.5h14.2c67.6,0,122.5,58.3,122.5,130.2
	C1474.1,7687.9,1419.2,7746.3,1351.6,7746.3"/>
<path class="st0" d="M2527.7,7072h-219.1v730.8h111.2v-658.1h25.3c101.4,0,122.4,58.3,122.4,130.3v527.8h110.6v-536
	C2678.2,7160.2,2610.9,7072,2527.7,7072"/>
<path class="st0" d="M3117.5,7435.9h-23.8l217.9-363.9h-122.4l-212.5,354.9V7072h-111.2v730.8h111.2v-295.4h58.3
	c67.6,0,122.4,58.3,122.4,130.2v165.2H3268v-173.3C3268,7522.9,3200.7,7435.9,3117.5,7435.9"/>
<path class="st0" d="M1974.1,7072h-219.1v733.6l111.2-2.7v-242h147.8v242h110.6v-536C2124.7,7160.2,2057.4,7072,1974.1,7072
	 M1866.3,7475.2v-330.5h25.3c96.1,0,122.5,58.3,122.5,130.3v200.2H1866.3z"/>
<path class="st0" d="M4413.1,7702.6c-109.5,0-122.5-58.3-122.5-130.3V7072h-110.6v540.6c0,106.7,67.2,190.2,150.4,190.2h219.7
	v-100.2H4413.1z"/>
<path class="st0" d="M3904.9,7072h-219v730.8H3797v-242h147.8v242h110.6v-536C4055.4,7160.2,3988.2,7072,3904.9,7072 M3797,7475.2
	v-330.5h25.3c95.2,0,122.5,58.3,122.5,130.3v200.2H3797z"/>
<path class="st0" d="M6263.8,7734.7h-25.4c-115,0-122.5-58.3-122.5-130.2V7072h-110.6v540.7c0,106.7,67.2,193.7,150.5,193.7H6375
	V7072h-111.2V7734.7z"/>
<path class="st0" d="M5142.1,7412.8c0,45.9-36.4,83.1-82.4,83.1c-45.9,0-82.7-37.2-82.7-83.1V7072H4867v305
	c0,97.8,56.6,178.9,130.2,191.7v234.2h111.2v-232.7c80-4.7,143.6-89.6,143.6-193.2v-305h-109.8V7412.8z"/>
<path class="st0" d="M5622.5,7067.2c-108.8,0-197.1,71.1-197.1,158.8v419c0,87.7,88.3,158.9,197.1,158.9
	c108.9,0,197.1-71.1,197.1-158.9v-419C5819.5,7138.3,5731.3,7067.2,5622.5,7067.2 M5712.1,7625.9c0,49.5-40.2,89.7-89.7,89.7
	c-49.6,0-89.8-40.2-89.8-89.7v-382.5c0-49.6,40.2-89.8,89.8-89.8c49.5,0,89.7,40.2,89.7,89.8V7625.9z"/>
<path class="st0" d="M6654,7278.4c-8.6-11.7-13.8-26.2-13.8-42c0-39.1,31.7-70.8,70.9-70.8h138.5v-97.2h-130.9
	c-99.9,0-181,81.2-181,181.1c0,42.2,14.4,81,38.7,111.8l165.5,204c13.2,17.3,21.1,38.9,21.1,62.3c0,56.6-45.9,102.4-102.4,102.4
	h-161.4v87h177.1c108.9,0,197.3-87.8,197.3-196.8c0-47.3-16.6-90.7-44.3-124.6L6654,7278.4z"/>
<path class="st0" d="M7382.7,7321.2v-57.9c0-106.6-67.2-193.7-150.5-193.7h-207.9v734h111.2v-277.6h64.7
	c47.2,1.4,85.1,39.8,85.1,87.4v190.3h87.3v-190.3c0-43-33.1-92.1-94.2-112.6l13.9-2.2C7345.5,7468.8,7382.7,7400.5,7382.7,7321.2
	 M7272.1,7318.8c0,71.9-54.8,124.6-122.5,124.6h-14.1v-302.1h14.1c67.6,0,122.5,58.3,122.5,130.3V7318.8z"/>
<path class="st0" d="M5877.1,6767.4H1224.4V797h6158.4v4735.5C7382.8,5532.5,7441,6851,5877.1,6767.4"/>
<path class="st1" d="M2218.9,4250.1v-532.8c0,0-62.4-1150.3,858.9-1873.8c0,0,599.7-514.8,1506.6-514.8
	c0,0,1285.8-41.7,2005.6,1154.9c0,0,307.1,473.1,307.1,1205.9v1994.4c0,0-30.4,2-74.3,0.7c-115.2-3.4-324-42.6-324-297.6V3606
	c0,0-19.2-1799.6-1885.6-1887.7c0,0-2015.2-74.2-1986.4,2087.2v162.4C2626.7,3967.8,2656.7,4272.9,2218.9,4250.1"/>
<path class="st1" d="M1399.6,6287.7l296.2-361.7h254.3c0,0,268.7,9.3,268.7-255.1c0-264.4-0.5-1061.6-0.5-1061.6l413.1,0.1v671.9
	h422.3v-398.9c0,0-16.5-285,398.2-273v671.9h187.2v-408.2c0,0-28.6-284.4,417.4-262.9l0.1,671.2H4234v-371.1
	c0,0-11.5-319.1,407.8-300.5v672.8h383.9v-400.2c0,0,0.4-293.3,398.2-272.4v672.6h436.6V3787.8c0,0-19.6-305.4,403.1-290.5v1700.5
	c0,0,43.2,491.6-508.6,487H2617.1c0,0,66.8,607.6-720,602.9H1399.6z"/>
<path class="st1" d="M5208.1,6106.8c0,96.1-80.6,173.9-180,173.9c-99.4,0-180-77.8-180-173.9s80.6-173.9,180-173.9
	C5127.5,5932.9,5208.1,6010.7,5208.1,6106.8"/>
<path class="st1" d="M5630.6,6108.2c0,96.1-80.5,173.9-179.9,173.9c-99.3,0-179.9-77.9-179.9-173.9c0-96.1,80.6-173.9,179.9-173.9
	C5550.1,5934.3,5630.6,6012.1,5630.6,6108.2"/>
</svg>
